<svg width="46" height="43" viewBox="0 0 46 43" fill="none" xmlns="http://www.w3.org/2000/svg">
<path d="M23.043 42.774C21.5273 42.797 20.2206 42.2888 19.1317 41.2301C18.4978 40.6139 17.8781 39.9854 17.1486 39.4772C15.2788 38.1794 13.2303 38.1653 11.4136 39.5197C10.6133 40.1164 9.92276 40.8565 9.13484 41.4691C7.27571 42.9191 5.22003 43.2113 3.09707 42.1755C0.958182 41.1344 -0.0864756 39.3002 0.00559596 36.9507C0.0994381 34.5853 1.35303 32.8856 3.55389 32.0286C5.72465 31.1841 7.72367 31.6479 9.43585 33.222C10.1512 33.8788 10.8045 34.6012 11.6048 35.1625C13.2161 36.292 14.9743 36.3399 16.6458 35.3094C17.6072 34.7163 18.365 33.8859 19.2061 33.1494C20.8651 31.6975 22.7632 31.223 24.8596 31.9808C26.9507 32.7368 28.1334 34.2931 28.4929 36.478C29.0258 39.7251 26.4443 42.7031 23.043 42.774Z" fill="white"/>
<path d="M40.3917 42.7919C37.2978 42.7812 34.8227 40.2997 34.8209 37.2054C34.8209 34.1128 37.4045 31.5654 40.4949 31.6135C43.619 31.6616 46.0212 34.1663 45.9999 37.355C45.9803 40.3638 43.4625 42.8043 40.3917 42.7919Z" fill="white"/>
<path d="M5.57551 15.8059C8.73184 15.7917 11.1719 18.2458 11.1791 21.4426C11.1862 24.4631 8.66963 26.9778 5.63594 26.9849C2.56492 26.9938 0.0395087 24.4933 0.000410113 21.4123C-0.0369113 18.3491 2.47784 15.8201 5.57374 15.8059H5.57551Z" fill="white"/>
<path d="M17.4372 21.8485C17.4319 19.0964 18.7536 17.0744 20.8867 16.2451C23.0889 15.3892 25.1121 15.7914 26.8607 17.3881C27.4914 17.964 28.0619 18.602 28.7458 19.1212C30.6663 20.5815 32.5673 20.6346 34.509 19.1992C35.2638 18.641 35.9388 17.9729 36.635 17.3367C38.3996 15.7259 40.8055 15.375 42.9475 16.4276C44.9672 17.42 46.1613 19.5997 45.9824 21.9672C45.8176 24.1452 44.2001 26.1087 41.9802 26.7413C39.9516 27.319 38.1445 26.8707 36.5907 25.43C35.9866 24.87 35.4037 24.2763 34.7482 23.7801C32.8437 22.3394 30.7088 22.3217 28.7901 23.7376C28.0584 24.2781 27.4188 24.9426 26.7225 25.531C24.9066 27.0656 22.8426 27.3864 20.7024 26.4454C18.5392 25.4938 17.4868 23.6951 17.4372 21.845V21.8485Z" fill="white"/>
<path d="M6.12032 0.0274527C7.1331 0.0557343 8.46459 0.559501 9.55527 1.67663C10.2122 2.35008 10.8797 3.0147 11.6676 3.54675C13.4063 4.71867 15.2212 4.71336 16.928 3.50963C17.7478 2.92985 18.4578 2.22281 19.1926 1.54405C20.9508 -0.0768357 23.2774 -0.45687 25.4163 0.571874C27.5357 1.59178 28.5785 3.38059 28.5626 5.67671C28.5449 8.08418 27.2896 9.8182 25.0745 10.7232C22.9233 11.6017 20.9119 11.2005 19.1944 9.60609C18.5251 8.98566 17.8948 8.32281 17.137 7.8049C15.2584 6.51985 13.2222 6.53576 11.3967 7.89858C10.738 8.38998 10.1413 8.96445 9.52695 9.5124C7.83072 11.0272 5.88129 11.5522 3.72294 10.7868C1.60353 10.0356 0.40484 8.45891 0.0595741 6.2282C-0.439734 3.01293 2.25334 -0.0167374 6.12032 0.0274527Z" fill="white"/>
<path d="M40.4612 4.71274e-05C43.5434 0.0107277 46.0177 2.50998 45.9999 5.59667C45.9821 8.6887 43.4901 11.1844 40.4238 11.1791C37.3185 11.1737 34.7962 8.62462 34.8211 5.51835C34.846 2.44768 37.3594 -0.0124136 40.4612 4.71274e-05Z" fill="white"/>
</svg>
